<?xml version="1.0" encoding="iso-8859-1"?>
<!-- Generator: Adobe Illustrator 19.0.0, SVG Export Plug-In . SVG Version: 6.00 Build 0)  -->
<svg version="1.1" id="Layer_1" xmlns="http://www.w3.org/2000/svg" xmlns:xlink="http://www.w3.org/1999/xlink" x="0px" y="0px"
	 viewBox="0 0 512 512" style="enable-background:new 0 0 512 512;" xml:space="preserve">
<g>
	<g>
		<path d="M352,10.669c-46.125,0-87.68,19.516-116.875,50.742c-15.648-18.016-38.719-29.414-64.461-29.414
			c-47.125,0-85.328,38.211-85.328,85.336c0,0.711,0.008,1.422,0.023,2.133C36.656,129.332,0,172.388,0,223.996
			c0,58.914,47.758,106.68,106.664,106.68H352c88.375,0,160-71.648,160-160.008C512,82.302,440.375,10.669,352,10.669z
			 M450.062,268.707c-12.75,12.75-27.594,22.75-44.094,29.734c-17.094,7.234-35.25,10.891-53.969,10.891H106.664
			c-22.789,0-44.219-8.875-60.336-25c-16.117-16.109-24.992-37.539-24.992-60.336c0-10.109,1.742-19.992,5.18-29.375
			c3.328-9.07,8.156-17.461,14.344-24.953c12.438-15.039,29.75-25.445,48.742-29.297l17.523-3.555l-0.438-17.875
			c-0.016-0.57-0.023-1.102-0.023-1.609c0-35.289,28.711-64,64-64c18.555,0,36.172,8.039,48.352,22.062l15.523,17.875l16.164-17.289
			c12.852-13.742,28.047-24.562,45.172-32.148C313.563,35.98,332.453,31.997,352,31.997c18.719,0,36.875,3.664,53.969,10.891
			c16.5,6.984,31.344,16.984,44.094,29.727c12.734,12.742,22.734,27.57,29.719,44.086c7.219,17.078,10.875,35.234,10.875,53.969
			c0,18.727-3.656,36.883-10.875,53.969C472.797,241.146,462.797,255.973,450.062,268.707z"/>
	</g>
</g>
<g>
	<g>
		<path d="M160,362.676c0-5.906-4.773-10.688-10.664-10.688c-4.18,0-7.781,2.406-9.539,5.906h-0.008l-64,128h0.008
			c-0.719,1.438-1.133,3.062-1.133,4.781c0,5.875,4.781,10.656,10.672,10.656c4.172,0,7.781-2.406,9.531-5.906h0.008l64-128h-0.008
			C159.586,365.988,160,364.379,160,362.676z"/>
	</g>
</g>
<g>
	<g>
		<path d="M224,362.676c0-5.906-4.773-10.688-10.664-10.688c-4.18,0-7.781,2.406-9.539,5.906h-0.008l-64,128h0.008
			c-0.719,1.438-1.133,3.062-1.133,4.781c0,5.875,4.781,10.656,10.672,10.656c4.172,0,7.781-2.406,9.531-5.906h0.008l64-128h-0.008
			C223.586,365.988,224,364.379,224,362.676z"/>
	</g>
</g>
<g>
	<g>
		<path d="M277.344,351.988c-4.188,0-7.789,2.406-9.547,5.906h-0.008l-64,128h0.008c-0.719,1.438-1.133,3.062-1.133,4.781
			c0,5.875,4.781,10.656,10.672,10.656c4.172,0,7.781-2.406,9.531-5.906h0.008l64-127.999c0.719-1.438,1.125-3.047,1.125-4.75
			C288,356.77,283.219,351.988,277.344,351.988z"/>
	</g>
</g>
<g>
	<g>
		<path d="M341.344,351.988c-4.188,0-7.781,2.406-9.547,5.906h-0.016l-63.992,128h0.008c-0.719,1.438-1.133,3.062-1.133,4.781
			c0,5.875,4.781,10.656,10.68,10.656c4.156,0,7.781-2.406,9.531-5.906l64-128c0.719-1.438,1.125-3.047,1.125-4.75
			C352,356.771,347.219,351.988,341.344,351.988z"/>
	</g>
</g>
<g>
</g>
<g>
</g>
<g>
</g>
<g>
</g>
<g>
</g>
<g>
</g>
<g>
</g>
<g>
</g>
<g>
</g>
<g>
</g>
<g>
</g>
<g>
</g>
<g>
</g>
<g>
</g>
<g>
</g>
</svg>
