<?xml version="1.0" encoding="iso-8859-1"?>
<!-- Generator: Adobe Illustrator 19.0.0, SVG Export Plug-In . SVG Version: 6.00 Build 0)  -->
<svg version="1.1" id="Capa_1" xmlns="http://www.w3.org/2000/svg" xmlns:xlink="http://www.w3.org/1999/xlink" x="0px" y="0px"
	 viewBox="0 0 469.607 469.607" style="enable-background:new 0 0 469.607 469.607;" xml:space="preserve">
<g>
	<path d="M210.489,332.797c2.289,0,4.547-1.046,6.018-3.02c2.483-3.362,1.774-8.057-1.56-10.516
		c-29.719-21.922-64.327-44.785-112.896-58.268v-29.169h2.552c15.111,0,27.405-12.294,27.405-27.405v-38.529
		c0-4.142-3.358-7.5-7.5-7.5s-7.5,3.358-7.5,7.5v38.529c0,6.84-5.565,12.405-12.405,12.405h-2.552V132.05c0-4.142-3.358-7.5-7.5-7.5
		s-7.5,3.358-7.5,7.5v54.818h-2.552c-6.84,0-12.405-5.565-12.405-12.405v-28.543c0-4.142-3.358-7.5-7.5-7.5s-7.5,3.358-7.5,7.5
		v28.543c0,15.111,12.294,27.405,27.405,27.405h2.552v55.374c-23.214-5.189-49.448-8.263-79.551-8.263c-4.142,0-7.5,3.358-7.5,7.5
		s3.358,7.5,7.5,7.5c98.946,0,154.365,34.766,198.542,67.353C207.382,332.32,208.942,332.797,210.489,332.797z"/>
	<path d="M462.107,248.979c-116.134,0-174.972,45.194-231.873,88.901c-0.51,0.392-1.02,0.783-1.53,1.175
		C171.826,382.739,117.552,423.677,7.5,423.677c-4.142,0-7.5,3.358-7.5,7.5s3.358,7.5,7.5,7.5
		c116.134,0,174.972-45.194,231.873-88.901c57.441-44.122,111.696-85.797,222.735-85.797c4.142,0,7.5-3.358,7.5-7.5
		S466.25,248.979,462.107,248.979z"/>
	<path d="M319.866,200.6c51.23,0,92.908-41.678,92.908-92.908c0-51.23-41.678-92.909-92.908-92.909s-92.909,41.679-92.909,92.909
		C226.958,158.921,268.636,200.6,319.866,200.6z M397.774,107.691c0,42.959-34.949,77.908-77.908,77.908
		s-77.909-34.949-77.909-77.908c0-42.959,34.95-77.909,77.909-77.909S397.774,64.732,397.774,107.691z"/>
	<path d="M389.196,454.825c4.411,0,8-3.588,8-8c0-4.411-3.588-7.999-8-7.999c-4.411,0-7.999,3.588-7.999,7.999
		C381.197,451.237,384.786,454.825,389.196,454.825z"/>
	<path d="M226.958,421.692c0,4.411,3.588,8,8,8c4.411,0,7.999-3.588,7.999-8c0-4.411-3.588-7.999-7.999-7.999
		C230.546,413.693,226.958,417.281,226.958,421.692z"/>
	<path d="M419.153,419.706c4.411,0,7.999-3.588,7.999-7.999c0-4.411-3.588-8-7.999-8c-4.411,0-8,3.588-8,8
		C411.154,416.117,414.742,419.706,419.153,419.706z"/>
</g>
<g>
</g>
<g>
</g>
<g>
</g>
<g>
</g>
<g>
</g>
<g>
</g>
<g>
</g>
<g>
</g>
<g>
</g>
<g>
</g>
<g>
</g>
<g>
</g>
<g>
</g>
<g>
</g>
<g>
</g>
</svg>
