<?xml version="1.0" encoding="iso-8859-1"?>
<!-- Generator: Adobe Illustrator 19.0.0, SVG Export Plug-In . SVG Version: 6.00 Build 0)  -->
<svg version="1.1" id="Layer_1" xmlns="http://www.w3.org/2000/svg" xmlns:xlink="http://www.w3.org/1999/xlink" x="0px" y="0px"
	 viewBox="0 0 512 512" style="enable-background:new 0 0 512 512;" xml:space="preserve">
<g>
	<g>
		<path d="M425.782,117.282c-1.586-1.966-3.975-3.108-6.501-3.108H194.047c12.224-58.704,36.596-97.469,61.948-97.469
			c22.314,0,44.433,30.517,57.729,79.642c1.205,4.454,5.797,7.084,10.244,5.88c4.454-1.206,7.085-5.792,5.88-10.245
			c-7.262-26.832-17.353-49.347-29.184-65.11C287.47,9.292,272.024,0,255.995,0c-35.08,0-65.057,43.547-79.008,114.174h-22.835
			c-4.614,0-8.353,3.74-8.353,8.353c0,4.613,3.739,8.353,8.353,8.353h254.777l-8.87,41.011
			c-6.409,29.629-33.063,51.135-63.378,51.135H175.32c-30.316,0-56.97-21.505-63.379-51.135l-8.869-41.011h25.283
			c4.614,0,8.353-3.74,8.353-8.353s-3.739-8.353-8.353-8.353H92.719c-2.526,0-4.915,1.143-6.5,3.108s-2.197,4.543-1.663,7.011
			l11.059,51.129c3.923,18.146,14.046,34.563,28.5,46.224c14.454,11.662,32.64,18.084,51.206,18.084h4.254v24.874
			c-8.957,1.206-17.23,5.277-23.715,11.773c-7.839,7.84-12.157,18.26-12.157,29.337v58.401c0,24.859,18.569,45.917,43.18,48.98
			c2.049,0.257,4.127,0.389,6.178,0.389h59.303c4.614,0,8.353-3.74,8.353-8.353c0-4.613-3.739-8.353-8.353-8.353h-59.303
			c-1.356,0-2.733-0.087-4.103-0.258c-16.276-2.026-28.551-15.958-28.551-32.406v-58.401c0-6.616,2.579-12.841,7.27-17.531
			c4.672-4.682,10.894-7.26,17.519-7.26c0.722,0,1.346,0.027,1.908,0.082c0.048,0.004,0.097,0.009,0.145,0.013
			c7.968,0.647,15.164,5.151,19.264,12.07c2.265,3.795,3.462,8.161,3.462,12.625v42.097c0,4.613,3.739,8.353,8.353,8.353
			c4.614,0,8.353-3.74,8.353-8.353v-16.728h13.148c4.614,0,8.353-3.74,8.353-8.353c0-4.613-3.739-8.353-8.353-8.353h-13.148v-8.662
			c0-7.477-2.015-14.803-5.81-21.162c-5.503-9.288-14.381-15.979-24.593-18.812v-26.01h140.401c18.572,0,36.758-6.423,51.209-18.084
			c14.452-11.66,24.571-28.077,28.496-46.224l11.06-51.129C427.979,121.825,427.368,119.247,425.782,117.282z"/>
	</g>
</g>
<g>
	<g>
		<path d="M400.138,495.295h-67.711V434.6h1.08c24.065,0,43.645-19.579,43.645-43.645v-50.26c0-9.85-3.834-19.109-10.798-26.074
			c-6.964-6.964-16.224-10.799-26.076-10.799c-2.666,0-5.292,0.297-7.851,0.853v-48.373c0-4.613-3.739-8.353-8.353-8.353
			s-8.353,3.74-8.353,8.353v61.036c0,0.001,0,0.002,0,0.002v177.956H196.28v-63.893c0-4.613-3.739-8.353-8.353-8.353
			s-8.353,3.74-8.353,8.353v63.893h-51.173c-4.614,0-8.353,3.74-8.353,8.353s3.739,8.353,8.353,8.353h271.736
			c4.614,0,8.353-3.74,8.353-8.353S404.752,495.295,400.138,495.295z M332.427,322.125c2.462-1.046,5.118-1.599,7.85-1.599
			c5.389,0,10.454,2.097,14.263,5.906s5.907,8.874,5.907,14.263v50.26c0,14.854-12.086,26.94-26.94,26.94h-1.08V322.125z"/>
	</g>
</g>
<g>
	<g>
		<path d="M382.12,142.835h-39.21c-4.614,0-8.353,3.74-8.353,8.353c0,4.613,3.74,8.353,8.353,8.353h39.21
			c4.614,0,8.353-3.74,8.353-8.353C390.472,146.575,386.733,142.835,382.12,142.835z"/>
	</g>
</g>
<g>
	<g>
		<path d="M314.512,142.835H129.886c-4.614,0-8.353,3.74-8.353,8.353c0,4.613,3.739,8.353,8.353,8.353h184.626
			c4.614,0,8.353-3.74,8.353-8.353C322.864,146.575,319.126,142.835,314.512,142.835z"/>
	</g>
</g>
<g>
</g>
<g>
</g>
<g>
</g>
<g>
</g>
<g>
</g>
<g>
</g>
<g>
</g>
<g>
</g>
<g>
</g>
<g>
</g>
<g>
</g>
<g>
</g>
<g>
</g>
<g>
</g>
<g>
</g>
</svg>
