<svg height="512pt" viewBox="0 -70 512.00044 512" width="512pt" xmlns="http://www.w3.org/2000/svg" xmlns:xlink="http://www.w3.org/1999/xlink"><linearGradient id="a"><stop offset="0" stop-color="#7ac943"/><stop offset=".4564" stop-color="#5fc146"/><stop offset="1" stop-color="#39b54a"/></linearGradient><linearGradient id="b" gradientTransform="matrix(.709873 .709873 -.709873 .709873 258.505287 -174.998033)" gradientUnits="userSpaceOnUse" x1="196.9968" x2="406.6232" xlink:href="#a" y1="160.4344" y2="160.4344"/><linearGradient id="c"><stop offset="0" stop-color="#39b54a" stop-opacity="0"/><stop offset=".1072" stop-color="#2fab48" stop-opacity=".105882"/><stop offset=".4553" stop-color="#159043" stop-opacity=".454902"/><stop offset=".7642" stop-color="#06803f" stop-opacity=".764706"/><stop offset="1" stop-color="#007a3e"/></linearGradient><linearGradient id="d" gradientTransform="matrix(.709873 .709873 -.709873 .709873 258.505287 -174.998033)" gradientUnits="userSpaceOnUse" x1="377.9446" x2="229.264" xlink:href="#c" y1="139.3236" y2="181.185"/><linearGradient id="e"><stop offset="0" stop-color="#39b54a"/><stop offset=".2394" stop-color="#32ad48"/><stop offset=".6031" stop-color="#1d9844"/><stop offset="1" stop-color="#007a3e"/></linearGradient><linearGradient id="f" gradientTransform="matrix(.709873 .709873 -.709873 .709873 258.505287 -174.998033)" gradientUnits="userSpaceOnUse" x1="275.3266" x2="328.5098" xlink:href="#e" y1="191.9463" y2="191.9463"/><linearGradient id="g" gradientUnits="userSpaceOnUse" x1="332.596447873" x2="182.3992758842" xlink:href="#c" y1="349.9325563448" y2="199.735384356"/><linearGradient id="h" gradientTransform="matrix(.709873 -.709873 .615304 .615304 57.222325 231.964665)" gradientUnits="userSpaceOnUse" x1="-47.134" x2="162.4924" xlink:href="#a" y1="58.0655" y2="58.0655"/><linearGradient id="i" gradientTransform="matrix(.709873 -.709873 .615304 .615304 57.222325 231.964665)" gradientUnits="userSpaceOnUse" x1="133.8136" x2="-14.8639" xlink:href="#c" y1="36.9548" y2="78.8153"/><linearGradient id="j" gradientTransform="matrix(.709873 -.709873 .615304 .615304 57.222325 231.964665)" gradientUnits="userSpaceOnUse" x1="31.1957" x2="84.3789" xlink:href="#e" y1="89.576" y2="89.576"/><path d="m511.839844 19.226562c1.523437-11.101562-7.964844-20.589843-19.066406-19.066406-46.535157 6.386719-159.210938 29.472656-238.058594 108.316406-77.824219 77.824219-56.765625 161.628907-48 186.53125 1.691406 4.804688 5.472656 8.585938 10.273437 10.277344 24.902344 8.765625 108.710938 29.824219 186.535157-48 78.847656-78.847656 101.929687-191.523437 108.316406-238.058594zm0 0" fill="url(#b)"/><path d="m409.070312 251.574219c.992188-1.050781 1.976563-2.105469 2.953126-3.164063.449218-.488281.898437-.976562 1.34375-1.464844 1.058593-1.164062 2.101562-2.332031 3.136718-3.507812.300782-.339844.601563-.675781.898438-1.011719 1.3125-1.503906 2.609375-3.019531 3.886718-4.542969.316407-.375.625-.753906.941407-1.132812.96875-1.167969 1.933593-2.339844 2.882812-3.515625.414063-.511719.824219-1.023437 1.234375-1.539063.890625-1.113281 1.769532-2.230468 2.640625-3.351562.359375-.464844.726563-.929688 1.082031-1.394531 1.199219-1.5625 2.386719-3.128907 3.550782-4.703125.074218-.101563.144531-.199219.21875-.300782 1.09375-1.484374 2.171875-2.972656 3.238281-4.46875.351563-.492187.699219-.988281 1.046875-1.484374.800781-1.136719 1.597656-2.277344 2.382812-3.417969.355469-.523438.714844-1.042969 1.070313-1.566407.871094-1.285156 1.730469-2.570312 2.578125-3.855468.21875-.335938.445312-.667969.664062-1.003906 1.054688-1.609376 2.09375-3.222657 3.113282-4.84375.265625-.421876.527344-.839844.789062-1.261719.765625-1.222657 1.523438-2.449219 2.273438-3.675781.328125-.539063.65625-1.082032.980468-1.621094.714844-1.183594 1.417969-2.371094 2.117188-3.558594.277344-.472656.558594-.949219.835938-1.421875.949218-1.636719 1.890624-3.273437 2.8125-4.914063.101562-.183593.199218-.367187.300781-.546874.820312-1.46875 1.628906-2.933594 2.425781-4.402344.28125-.519532.5625-1.042969.839844-1.5625.628906-1.171875 1.25-2.347656 1.867187-3.519532.277344-.53125.558594-1.0625.832031-1.59375.699219-1.351562 1.390626-2.703124 2.070313-4.054687.152344-.304687.3125-.609375.464844-.914063.820312-1.644531 1.628906-3.289062 2.421875-4.929687.21875-.449219.429687-.898437.644531-1.347656.585937-1.21875 1.164063-2.4375 1.734375-3.65625.253906-.546875.507812-1.09375.761719-1.640625.554687-1.207032 1.105469-2.40625 1.648437-3.609375.207032-.460938.417969-.925781.625-1.386719.730469-1.636719 1.453125-3.269531 2.15625-4.902344.105469-.242187.203125-.484375.308594-.722656.601562-1.402344 1.195312-2.800781 1.777344-4.199219.21875-.519531.433594-1.039062.648437-1.558593.476563-1.160157.949219-2.320313 1.417969-3.472657.207031-.519531.417969-1.035156.625-1.550781.546875-1.375 1.085938-2.746094 1.617188-4.113281.097656-.25.195312-.496094.292968-.746094.617188-1.605469 1.222656-3.203125 1.820313-4.800781.171875-.457032.335937-.910156.503906-1.367188.433594-1.167968.859375-2.335937 1.277344-3.496094.191406-.527343.378906-1.050781.5625-1.574218.421875-1.171875.832031-2.34375 1.238281-3.511719.148438-.425781.300781-.851563.445312-1.277344.539063-1.566406 1.070313-3.125 1.589844-4.679687.089844-.277344.179688-.554688.273438-.835938.425781-1.285156.84375-2.5625 1.253906-3.835937.160156-.5.320312-1 .480469-1.496094.34375-1.085937.6875-2.171875 1.023437-3.25.148438-.488281.304688-.972656.453125-1.457031.410157-1.339844.8125-2.671875 1.210938-3.992188.050781-.175781.105469-.355468.160156-.53125.445313-1.5.878906-2.988281 1.304687-4.46875.121094-.429687.242188-.855468.363282-1.285156.304687-1.070312.605468-2.136719.902344-3.195312.132812-.484376.265624-.964844.398437-1.445313.300781-1.09375.59375-2.179687.882813-3.261719.097656-.363281.195312-.730468.292968-1.09375.378906-1.425781.75-2.84375 1.109375-4.246094.070313-.285156.140625-.5625.210938-.84375.289062-1.128906.566406-2.253906.84375-3.363281.109375-.445312.21875-.890625.324219-1.332031.242187-.984375.476562-1.960938.707031-2.929688.101562-.417968.203125-.839843.300781-1.253906.289062-1.234375.574219-2.464844.851562-3.675781.023438-.105469.046876-.210937.074219-.316406.296875-1.316407.585938-2.617188.867188-3.90625.085937-.378907.164062-.753907.246093-1.128907.203126-.933593.398438-1.855468.59375-2.769531.085938-.40625.171876-.8125.253907-1.214843.199219-.949219.390625-1.886719.578125-2.816407.0625-.304687.128906-.617187.1875-.917969.242187-1.207031.480468-2.398437.707031-3.574218.050781-.261719.097656-.519532.148437-.78125.175782-.925782.351563-1.84375.519532-2.746094.066406-.371094.132812-.738281.203125-1.105469.148437-.816406.296875-1.625.4375-2.421875.058593-.332031.121093-.667968.179687-1 .191406-1.082031.378906-2.148437.554688-3.195312.003906-.015625.003906-.027344.007812-.042969.179688-1.0625.351563-2.101563.519532-3.128906.050781-.308594.097656-.613281.148437-.921875.117187-.730469.234375-1.453125.34375-2.164063.050781-.3125.097656-.625.148437-.933593.113282-.753907.226563-1.492188.335938-2.21875.03125-.21875.066406-.441407.097656-.65625.136719-.921876.265625-1.828126.394532-2.707032.027343-.210937.054687-.414062.085937-.621094.070313-.488281.132813-.96875.199219-1.441406.75-5.539062-1.238282-10.671875-4.800782-14.234375l-296.351562 296.355469c1.75 1.75 3.886719 3.113281 6.277344 3.960938.246094.085937.496094.175781.757812.265624.128906.042969.25.085938.382813.132813.460937.15625.9375.316406 1.433593.480469.082032.027344.167969.054687.253907.082031.414062.136719.839843.273437 1.277343.414063.179688.058593.367188.113281.550782.171874.355468.113282.714844.222657 1.085937.335938.210938.066406.429688.132812.644531.199219.367188.109375.742188.21875 1.121094.332031.226563.0625.449219.128906.675782.195312.410156.117188.835937.238282 1.261718.355469.203125.058594.402344.113281.609375.171875.640625.175782 1.289063.351563 1.960938.523438.023437.007812.050781.015625.078125.019531.640625.167969 1.296875.335937 1.964844.5.222656.058594.453124.113281.679687.167969.484375.117187.972656.234375 1.46875.351562.269531.0625.542969.125.8125.1875.472656.109375.953125.214844 1.4375.324219.289063.0625.578125.125.867187.1875.511719.109375 1.035157.21875 1.554688.324219.265625.054687.53125.109375.796875.164062.703125.140625 1.414063.28125 2.136719.414063.097656.019531.195312.039062.292968.058593.816407.152344 1.652344.296876 2.5.441407.253907.046875.519532.085937.777344.128906.601563.101563 1.207032.199219 1.816406.296875.320313.046875.640626.097656.960938.144531.574219.085938 1.152344.167969 1.734375.25.335937.046875.675781.09375 1.015625.140625.601562.078125 1.207031.15625 1.8125.234375.324219.039063.648438.078125.976562.117188.734376.085937 1.476563.167969 2.226563.246093.207031.023438.40625.046876.613281.066407.953125.097656 1.921875.1875 2.898438.269531.257812.023438.523437.042969.78125.0625.726562.058594 1.457031.113281 2.195312.164062.359375.023438.722656.046876 1.089844.070313.652344.039063 1.308594.078125 1.972656.109375.390625.019531.777344.039062 1.167969.054688.667969.03125 1.34375.054687 2.019531.078124.378906.011719.757813.023438 1.136719.035157.769531.019531 1.542969.03125 2.320313.042969.292968.003906.582031.011718.878906.011718 1.066406.007813 2.148437.007813 3.234375-.003906.230469-.003906.460937-.011719.6875-.015625.867187-.011719 1.738281-.027344 2.613281-.054687.386719-.011719.78125-.027344 1.171875-.042969.730469-.027344 1.46875-.054688 2.210937-.09375.421876-.019531.851563-.042969 1.277344-.070313.730469-.039062 1.464844-.089844 2.199219-.140625.425781-.027343.847656-.058593 1.277344-.089843.800781-.0625 1.609375-.132813 2.417969-.207032.359374-.03125.710937-.0625 1.070312-.097656 1.167969-.113281 2.34375-.238281 3.523438-.378906.128906-.015625.257812-.035156.382812-.050782 1.054688-.125 2.117188-.265624 3.183594-.414062.398437-.054688.804687-.121094 1.203125-.179688.804687-.117187 1.613281-.242187 2.425781-.371093.457031-.074219.914062-.152344 1.371094-.230469.78125-.132812 1.5625-.273438 2.351562-.417969.457032-.085937.917969-.171875 1.378906-.261719.828126-.160156 1.660157-.332031 2.496094-.507812.414063-.085938.824219-.167969 1.238282-.257812 1.148437-.25 2.300781-.511719 3.460937-.789063.097656-.023437.191406-.042969.285156-.066406 1.253907-.300781 2.511719-.625 3.777344-.960938.390625-.101562.785156-.214843 1.175781-.324219.882813-.238281 1.765625-.484374 2.648438-.742187.472656-.136719.949218-.28125 1.421875-.421875.824219-.25 1.648437-.503906 2.476562-.765625.484375-.152344.972657-.308594 1.457031-.46875.851563-.277344 1.707032-.566406 2.5625-.863281.453126-.15625.902344-.304688 1.355469-.464844 1.054688-.375 2.117188-.765625 3.179688-1.164062.242187-.089844.488281-.175782.730469-.269532 1.304687-.5 2.617187-1.019531 3.929687-1.558594.367187-.148437.734375-.308593 1.101563-.460937.953124-.398437 1.90625-.800781 2.863281-1.222656.480469-.207031.960937-.425781 1.441406-.640625.855469-.386719 1.714844-.78125 2.574219-1.183594.503906-.234375 1.007812-.472656 1.511718-.714844.867188-.414062 1.734376-.84375 2.605469-1.277344.476563-.238281.957031-.476562 1.433594-.71875 1-.511718 2-1.039062 3-1.574218.34375-.183594.683594-.359375 1.027344-.546875 1.339843-.726563 2.679687-1.472657 4.023437-2.246094.308594-.179687.621094-.371094.933594-.550781 1.035156-.605469 2.070312-1.21875 3.105469-1.847656.476562-.289063.953125-.589844 1.429687-.886719.882813-.546875 1.769532-1.105469 2.652344-1.675781.511719-.328126 1.019531-.660157 1.53125-.996094.871094-.574219 1.746094-1.160156 2.617188-1.753906.5-.339844.996093-.671876 1.492187-1.019532.957031-.664062 1.917969-1.347656 2.875-2.039062.402344-.289063.800781-.570313 1.203125-.863282 1.351562-.988281 2.703125-2 4.058594-3.042968.210937-.160156.417968-.332032.628906-.492188 1.144531-.890625 2.289062-1.792968 3.433594-2.71875.460937-.371094.917968-.757812 1.378906-1.136718.902344-.742188 1.804688-1.492188 2.707031-2.257813.507813-.433594 1.019531-.875 1.527344-1.316406.867187-.753907 1.738281-1.515625 2.605469-2.292969.503906-.449219 1.007812-.898438 1.511718-1.359375.921876-.835937 1.84375-1.695313 2.765626-2.5625.433593-.410156.871093-.808594 1.304687-1.226563 1.347656-1.285156 2.695313-2.59375 4.042969-3.941406 1.441406-1.4375 2.855468-2.894531 4.261718-4.355468.425782-.453126.851563-.90625 1.28125-1.355469zm0 0" fill="url(#d)"/><path d="m433.453125 111.21875c-2.878906.964844-5.757813 1.734375-8.605469 2.527344-2.851562.796875-5.683594 1.597656-8.5 2.25-2.816406.707031-5.609375 1.015625-8.367187 1.375-2.757813.34375-5.507813 1.117187-8.316407 2.300781-2.796874 1.222656-5.589843 2.554687-8.5 4.214844 3.101563-3.304688 6.195313-6.605469 9.296876-9.917969l15.285156-16.027344c5.085937-5.375 10.351562-10.484375 15.5-15.804687 10.398437-10.496094 21-20.644531 32.113281-30.320313l-1.109375-2.167968-9.101562 6.316406-4.582032 3.183594c-1.507812 1.089843-2.957031 2.242187-4.441406 3.363281-5.835938 4.574219-11.878906 9.027343-17.566406 13.816406-11.597656 9.386719-22.851563 19.175781-34.167969 28.933594-2.144531 1.917969-4.292969 3.84375-6.441406 5.761719.738281-2.066407 1.328125-4.117188 1.601562-6.167969.386719-2.761719.722657-5.5625 1.457031-8.382813.675782-2.820312 1.503907-5.65625 2.328126-8.507812.820312-2.847656 1.613281-5.730469 2.601562-8.613282 1.742188-5.800781 3.996094-11.613281 6.160156-17.597656l-1.347656-.398437c-4.335938 5.429687-8.390625 11.105469-12.046875 16.949219-1.855469 2.917968-3.535156 5.882812-5.257813 8.867187-1.578124 2.992187-3.171874 6.011719-4.617187 9.050781-1.46875 3.039063-3.117187 6.097656-4.648437 9.191406-1.46875 3.089844-2.453126 6.191407-2.800782 9.21875-.058594.59375-.109375 1.1875-.152344 1.777344-.433593 6.429688-4.234374 13.421875-9.984374 18.714844l-.105469.097656c-10.003907 9.214844-19.847657 18.566406-29.734375 27.890625.972656-2.902343 1.652344-5.636719 2.210937-8.339843.535157-2.777344.644531-5.394532.300781-7.90625-.328124-2.519532-.722656-5.054688-.695312-7.714844-.039062-2.640625.082031-5.339844.199219-8.054688.109375-2.710937.179687-5.441406.460937-8.21875.296875-5.539062 1.136719-11.21875 1.835938-17.027344l-1.539063.015626c-3.152343 5.902343-5.945312 11.945312-8.265625 18.027343-1.195312 3.046875-2.1875 6.085938-3.21875 9.15625-.875 3.035157-1.757812 6.101563-2.484375 9.140625-.75 3.050782-1.683593 6.164063-2.480469 9.277344-.730468 3.09375-.945312 6.066406-.503906 8.800781.210938 1.203125.472656 2.390625.808594 3.546875 1.648438 5.632813-1.441406 13.199219-7.277344 18.605469-5.007812 4.640625-10.027344 9.277344-15.011718 13.941406-6.324219 5.902344-12.425782 12.015625-18.351563 18.28125.785156-2.496093 1.371094-4.882812 1.863281-7.246093.53125-2.773438.644532-5.390626.300782-7.90625-.332032-2.519532-.722657-5.054688-.695313-7.714844-.039063-2.644532.082031-5.34375.195313-8.054688.109374-2.710937.183593-5.441406.460937-8.222656.296875-5.535156 1.140625-11.214844 1.835937-17.023438l-1.539062.011719c-3.152344 5.902344-5.945312 11.949219-8.265625 18.027344-1.195313 3.050781-2.1875 6.089844-3.21875 9.15625-.875 3.039063-1.757813 6.101563-2.480469 9.144531-.75 3.046875-1.683594 6.160156-2.484375 9.273438-.730469 3.09375-.945312 6.066406-.503906 8.804687.472656 2.703125 1.210937 5.328125 2.480469 7.6875 1.453125 2.703125.664062 6.675781-2.109375 9.988281-7.183594 8.574219-20.078125 24.144532-26.5 32.710938-8.636719 11.640625-16.976563 23.515625-24.304688 36.214844-.359375.621094-.21875 1.417968.328125 1.878906.511719.433594 1.253906.46875 1.808594.085938 12.285156-8.484376 23.6875-17.679688 34.800781-27.109376 11.371094-9.691406 22.371094-19.675781 33.066407-29.925781.191406-.179687.378906-.363281.570312-.542969 3.449219-3.304687 7.867188-4.34375 10.871094-2.785156 2.21875 1.144532 4.660156 1.847656 7.171875 2.316406 2.722656.46875 5.6875.285157 8.777343-.417968 3.109376-.769532 6.222657-1.675782 9.265626-2.394532 3.039062-.695312 6.097656-1.550781 9.136718-2.402343 3.066406-1 6.105469-1.964844 9.152344-3.132813 6.085938-2.265625 12.136719-5.007812 18.046875-8.113281l.03125-1.542969c-5.796875.640625-11.464844 1.425782-16.980469 1.667969-2.777344.253906-5.496094.296875-8.199218.378906-2.703126.085938-5.394532.183594-8.027344.117188-2.652344 0-5.171875-.417969-7.675782-.777344-2.503906-.371094-5.113281-.285156-7.882812.222656-3.015625.597657-6.085938 1.371094-9.375 2.507813 5.359375-5.613282 10.585938-11.347656 15.683594-17.195313 4.039062-4.699219 9.539062-10.992187 14.382812-16.511719 5.152344-5.871093 12.566406-9.148437 18.246094-7.777343 2.777344.671875 5.792969.863281 8.40625 1.351562 2.722656.472657 5.6875.285157 8.773438-.417969 3.109374-.769531 6.222656-1.675781 9.265624-2.398437 3.039063-.695313 6.101563-1.550781 9.136719-2.398437 3.066407-1.003907 6.105469-1.96875 9.15625-3.132813 6.082031-2.265625 12.132813-5.007813 18.042969-8.113281l.03125-1.542969c-5.796875.640625-11.464844 1.425781-16.980469 1.667969-2.773437.253906-5.496093.296875-8.199219.378906-2.703124.089844-5.390624.183594-8.023437.117188-2.652344 0-5.175781-.421876-7.679687-.777344-2.503907-.371094-5.113282-.285156-7.882813.222656-5.3125 1.054688-10.769531 2.601562-17.414063 5.945312 9.980469-10.851562 19.910157-21.785156 30.007813-32.527343l.382813-.421875c6.035156-6.625 14.292968-10.820313 21.332031-10.355469 1.988281.132813 4.027343.058594 6.070312-.132813 3.019531-.316406 6.121094-1.273437 9.214844-2.714843 3.097656-1.503907 6.164063-3.125 9.207031-4.570313 3.042969-1.421875 6.066406-2.988281 9.066406-4.542968 2.992188-1.695313 5.960938-3.351563 8.886719-5.1875 5.859375-3.605469 11.558594-7.617188 17.007813-11.914063l-.382813-1.359375c-5.984375 2.109375-11.796875 4.3125-17.597656 6zm0 0" fill="url(#f)"/><path d="m216.992188 305.285156c19.378906 6.824219 74.441406 21.082032 134.589843-9.613281l-117.503906-117.546875c-5.882813-5.882812-12.03125-11.355469-18.375-16.460938-29.867187 59.664063-15.761719 114.097657-8.988281 133.34375 1.691406 4.804688 5.472656 8.585938 10.277344 10.277344zm0 0" fill="url(#g)"/><path d="m19.101562 92.886719c-10.261718-.679688-19.75 8.804687-19.0664058 19.066406 2.8593748 43.011719 16.8984378 146.640625 85.2382818 214.980469 67.453124 67.453125 147.074218 42.214844 170.902343 32.371094 4.597657-1.898438 8.378907-5.679688 10.277344-10.273438 9.839844-23.828125 35.078125-103.453125-32.375-170.90625-68.335937-68.339844-171.96875-82.375-214.976563-85.238281zm0 0" fill="url(#h)"/><path d="m229.117188 173.328125c-.914063-.855469-1.828126-1.707031-2.753907-2.546875-.425781-.386719-.851562-.773438-1.277343-1.15625-1.015626-.910156-2.039063-1.804688-3.066407-2.695312-.296875-.253907-.589843-.515626-.886719-.769532-1.316406-1.125-2.644531-2.234375-3.976562-3.328125-.332031-.269531-.664062-.53125-.996094-.800781-1.023437-.828125-2.054687-1.648438-3.089844-2.457031-.449218-.355469-.902343-.703125-1.355468-1.050781-.980469-.753907-1.964844-1.5-2.953125-2.238282-.410157-.308594-.816407-.617187-1.226563-.917968-1.378906-1.015626-2.761718-2.019532-4.15625-3.003907-.085937-.058593-.175781-.121093-.261718-.179687-1.3125-.925782-2.632813-1.832032-3.957032-2.726563-.4375-.296875-.878906-.585937-1.316406-.878906-1.007812-.671875-2.019531-1.339844-3.03125-1.996094-.464844-.300781-.929688-.597656-1.390625-.894531-1.140625-.726562-2.28125-1.445312-3.429687-2.152344-.296876-.183594-.589844-.371094-.890626-.550781-1.429687-.878906-2.871093-1.738281-4.3125-2.585937-.375-.21875-.75-.433594-1.128906-.652344-1.089844-.632813-2.183594-1.257813-3.277344-1.875-.480468-.269532-.964843-.539063-1.445312-.804688-1.058594-.589844-2.121094-1.167968-3.183594-1.742187-.421875-.226563-.847656-.457031-1.269531-.683594-1.464844-.777344-2.929687-1.546875-4.398437-2.296875-.164063-.082031-.328126-.164062-.492188-.246094-1.3125-.667968-2.628906-1.324218-3.945312-1.972656-.46875-.226562-.933594-.453125-1.402344-.679688-1.054688-.507812-2.109375-1.011718-3.164063-1.507812-.476562-.222656-.953125-.449219-1.429687-.667969-1.214844-.566406-2.429688-1.117187-3.644532-1.664062-.277343-.121094-.550781-.25-.824218-.371094-1.480469-.660156-2.957032-1.300781-4.4375-1.933594-.40625-.171875-.8125-.34375-1.214844-.511719-1.101562-.464843-2.199219-.925781-3.300781-1.375-.492188-.203124-.984375-.402343-1.480469-.601562-1.085938-.4375-2.171875-.871094-3.253906-1.296875-.417969-.164063-.835938-.328125-1.253906-.492187-1.480469-.574219-2.957032-1.136719-4.433594-1.683594-.21875-.082032-.433594-.160156-.652344-.242188-1.269531-.46875-2.535156-.929687-3.800781-1.378906-.46875-.167969-.941407-.332031-1.414063-.5-1.046875-.367188-2.097656-.734375-3.148437-1.089844-.46875-.160156-.9375-.324218-1.40625-.480468-1.246094-.421876-2.488281-.832032-3.726563-1.238282-.226562-.074218-.453125-.148437-.675781-.222656-1.457031-.46875-2.910156-.929688-4.359375-1.378906-.417969-.128906-.828125-.253906-1.246094-.378906-1.058594-.328126-2.121094-.648438-3.175781-.960938-.476563-.140625-.953125-.28125-1.429687-.421875-1.070313-.3125-2.132813-.621094-3.195313-.921875-.386719-.109375-.777344-.222656-1.164063-.328125-1.425781-.402344-2.847656-.792969-4.261718-1.171875-.253906-.066406-.507813-.132812-.761719-.203125-1.171875-.308594-2.335937-.617187-3.496094-.914063-.457031-.117187-.910156-.230468-1.367187-.34375-.992188-.253906-1.980469-.5-2.964844-.738281-.441406-.109375-.886719-.21875-1.332031-.328125-1.21875-.292968-2.433594-.582031-3.644531-.863281-.160157-.039063-.324219-.078125-.484376-.113281-1.371093-.316406-2.730468-.625-4.082031-.921875-.394531-.085938-.785156-.171875-1.175781-.257813-.976562-.210937-1.953125-.421875-2.921875-.625-.441406-.09375-.882813-.183594-1.324219-.277344-1-.207031-1.996094-.40625-2.988281-.605468-.332031-.066406-.667969-.136719-1-.199219-1.304687-.261719-2.601563-.511719-3.886719-.75-.261718-.050781-.515625-.097656-.773437-.144531-1.035157-.191406-2.0625-.378906-3.085938-.5625-.40625-.074219-.8125-.144532-1.21875-.214844-.902343-.160156-1.796875-.316406-2.6875-.464844-.382812-.066406-.769531-.132812-1.148437-.195312-1.136719-.1875-2.261719-.375-3.375-.550782-.097656-.015624-.195313-.03125-.292969-.046874-1.207031-.191407-2.402344-.375-3.585937-.550782-.347657-.054687-.691407-.101562-1.039063-.15625-.855469-.125-1.703125-.246094-2.542969-.367187-.375-.050781-.746094-.105469-1.117187-.15625-.875-.121094-1.738281-.238281-2.59375-.351563-.28125-.039062-.566407-.078125-.84375-.113281-1.109375-.148437-2.207031-.289063-3.289063-.421875-.242187-.03125-.476562-.058594-.71875-.085938-.851562-.105468-1.695312-.207031-2.527344-.304687-.339843-.039063-.679687-.078125-1.019531-.117187-.75-.085938-1.496093-.167969-2.230469-.246094-.304687-.035156-.617187-.066406-.921874-.101563-.996094-.105469-1.980469-.207031-2.945313-.304687-.011719 0-.027344-.003906-.039063-.003906-.980468-.097657-1.941406-.1875-2.886718-.277344-.285156-.027344-.566406-.050782-.851563-.078125-.675781-.058594-1.339843-.121094-1.996093-.175781-.289063-.023438-.578126-.050782-.863282-.074219-.691406-.058594-1.375-.113281-2.046875-.164063-.199219-.019531-.40625-.035156-.605469-.050781-.851562-.066406-1.6875-.125-2.5-.183594-.195312-.015625-.382812-.027343-.574218-.042969-.453125-.03125-.890625-.058593-1.332032-.089843-5.121093-.328125-10.042968 1.867187-13.605468 5.429687l256.863281 256.863282c1.75-1.75 3.164063-3.835938 4.113281-6.125.097656-.234376.195313-.476563.296875-.722657.050781-.121093.101563-.242187.152344-.367187.175781-.441406.359375-.894532.542969-1.367188.03125-.078125.0625-.164062.09375-.242187.15625-.398438.3125-.800781.472656-1.21875.066406-.171875.132812-.351563.195312-.527344.128907-.339844.257813-.683594.386719-1.035156.074219-.203125.152344-.410157.226563-.617188.128906-.351562.257812-.707031.386718-1.070312.074219-.210938.152344-.421875.226563-.640625.140625-.394532.277344-.796875.417969-1.203125.066406-.195313.132812-.382813.199218-.582031.207032-.605469.414063-1.226563.621094-1.859376.007813-.027343.015625-.050781.023438-.074218.199218-.609375.398437-1.234375.597656-1.867188.066406-.214844.132812-.433594.199219-.648437.144531-.460938.285156-.921875.425781-1.394531.078125-.253907.152344-.511719.230469-.773438.132812-.449219.265625-.902344.394531-1.359375.082031-.273437.160156-.546875.238281-.824219.136719-.488281.269531-.980468.40625-1.476562.066407-.25.136719-.5.207031-.753906.175782-.664063.351563-1.335938.527344-2.019532.023438-.09375.046875-.183594.070313-.273437.199219-.777344.390625-1.566407.582031-2.363281.058594-.242188.113281-.492188.171875-.738282.136719-.566406.265625-1.136718.398437-1.714844.066407-.300781.132813-.601562.199219-.90625.117188-.539062.234375-1.082031.347657-1.632812.066406-.320312.132812-.640625.199218-.960938.117188-.5625.226563-1.132812.339844-1.707031.058594-.304687.117188-.609375.175781-.914062.128907-.695313.253907-1.394531.378907-2.097657.035156-.195312.070312-.382812.101562-.578124.15625-.894532.304688-1.804688.445312-2.722657.039063-.242187.074219-.488281.109376-.730469.105468-.683593.203124-1.367187.300781-2.0625.046875-.335937.089843-.679687.136719-1.019531.082031-.613281.160156-1.230469.234374-1.851562.046876-.363281.089844-.726563.132813-1.09375.070313-.625.136719-1.253907.203125-1.886719.039062-.355469.074219-.710938.109375-1.066406.070313-.71875.132813-1.441406.195313-2.167969.023437-.273437.046874-.546875.070312-.820313.078125-1 .148438-2.003906.210938-3.019531.011718-.214843.019531-.429687.035156-.640625.042968-.808594.085937-1.617187.121094-2.433594.011718-.363281.023437-.726562.035156-1.089843.027344-.683594.046875-1.367188.0625-2.058594.007812-.394531.011718-.789063.019531-1.1875.011719-.679687.015625-1.363281.015625-2.046875 0-.394531.003906-.789062 0-1.183594-.003906-.742187-.019531-1.492187-.03125-2.242187-.007812-.332031-.011719-.664063-.019531-.996094-.03125-1.082031-.070313-2.167969-.121094-3.261719-.007813-.117187-.015625-.238281-.019531-.355468-.050782-.976563-.109375-1.957032-.179688-2.941407-.023437-.371093-.054687-.742187-.085937-1.113281-.054688-.746094-.117188-1.492188-.1875-2.238281-.039063-.421875-.082031-.84375-.121094-1.265625-.074219-.71875-.152344-1.441406-.234375-2.164063-.050781-.421875-.101562-.847656-.152344-1.269531-.09375-.765625-.199218-1.53125-.308594-2.296875-.050781-.378906-.101562-.757813-.160156-1.140625-.15625-1.054688-.324218-2.113281-.503906-3.175781-.015625-.089844-.027344-.175781-.042969-.261719-.199219-1.148438-.414062-2.304688-.644531-3.460938-.070312-.359374-.148438-.71875-.222656-1.078124-.167969-.804688-.335938-1.613282-.519532-2.421876-.097656-.429687-.199218-.863281-.300781-1.296874-.175781-.75-.359375-1.503907-.546875-2.261719-.113281-.441407-.222656-.882813-.339844-1.328125-.203124-.777344-.417968-1.554688-.636718-2.335938-.113282-.410156-.226563-.820312-.34375-1.230468-.28125-.960938-.574219-1.925782-.875-2.890626-.070313-.222656-.132813-.445312-.203125-.664062-.378907-1.1875-.777344-2.375-1.191407-3.566406-.113281-.332032-.238281-.664063-.355468-.996094-.308594-.863281-.625-1.726562-.953125-2.59375-.160157-.433594-.332031-.867188-.503907-1.300781-.300781-.773438-.609374-1.550781-.929687-2.324219-.1875-.453125-.375-.910156-.566406-1.363281-.332031-.78125-.671875-1.5625-1.019531-2.347657-.191407-.429687-.378907-.859374-.574219-1.289062-.410157-.898438-.839844-1.796875-1.269531-2.695312-.148438-.308594-.289063-.613282-.441407-.921876-.585937-1.199218-1.195312-2.402343-1.828125-3.605468-.148437-.277344-.304687-.554688-.453125-.835938-.492187-.925781-.996093-1.851562-1.515625-2.777344-.242187-.421874-.488281-.847656-.730468-1.273437-.457032-.785156-.914063-1.574219-1.386719-2.363281-.273438-.453125-.550781-.910156-.832031-1.363282-.476563-.777343-.964844-1.550781-1.460938-2.328124-.28125-.4375-.5625-.878907-.851562-1.320313-.554688-.851563-1.128907-1.703125-1.710938-2.550781-.242188-.355469-.476562-.707032-.726562-1.0625-.832032-1.195313-1.6875-2.394532-2.566407-3.585938-.136719-.183594-.285156-.371094-.421875-.554687-.753906-1.007813-1.519531-2.019531-2.308594-3.023438-.316406-.40625-.644531-.808593-.96875-1.210937-.632812-.792969-1.273437-1.585938-1.925781-2.375-.371093-.449219-.75-.894532-1.125-1.339844-.644531-.761719-1.300781-1.519531-1.96875-2.277344-.386719-.441406-.773437-.882812-1.167969-1.320312-.71875-.804688-1.460937-1.609375-2.207031-2.414063-.355469-.378906-.699219-.757812-1.058593-1.136719-1.109376-1.171874-2.242188-2.339843-3.40625-3.507812-1.25-1.25-2.515626-2.472656-3.785157-3.6875-.394531-.371094-.789062-.738281-1.183593-1.109375zm0 0" fill="url(#i)"/><path d="m99.742188 159.917969c.707031 2.625 1.230468 5.261719 1.78125 7.867187.558593 2.605469 1.117187 5.199219 1.535156 7.785156.472656 2.582032.574218 5.167969.726562 7.71875.136719 2.550782.675782 5.0625 1.59375 7.609376.953125 2.527343 2.011719 5.046874 3.367188 7.648437-2.878906-2.671875-5.753906-5.34375-8.636719-8.015625l-13.945313-13.199219c-4.675781-4.386719-9.09375-8.964843-13.71875-13.410156-9.101562-9.007813-17.867187-18.230469-26.15625-27.957031l-2.097656 1.179687 5.289063 8.074219 2.664062 4.066406c.917969 1.335938 1.898438 2.609375 2.84375 3.917969 3.882813 5.144531 7.632813 10.488281 11.726563 15.476563 7.988281 10.199218 16.375 20.054687 24.730468 29.964843 1.648438 1.871094 3.300782 3.75 4.949219 5.628907-1.878906-.550782-3.753906-.964844-5.652343-1.085938-2.554688-.175781-5.144532-.304688-7.726563-.800781-2.585937-.441407-5.179687-1.023438-7.785156-1.605469-2.605469-.574219-5.242188-1.125-7.867188-1.855469-5.296875-1.238281-10.570312-2.957031-16.015625-4.578125l-.460937 1.285156c4.777343 3.6875 9.804687 7.09375 15.015625 10.117188 2.601562 1.539062 5.253906 2.910156 7.925781 4.316406 2.691406 1.273438 5.402344 2.558594 8.140625 3.707032 2.738281 1.167968 5.484375 2.503906 8.269531 3.726562 2.789063 1.164062 5.617188 1.875 8.417969 1.996094.550781.015625 1.101562.027344 1.648438.023437 5.972656-.023437 12.246093 3.0625 16.804687 8.074219l.085937.09375c7.933594 8.722656 16.003907 17.285156 24.050782 25.894531-2.644532-.714843-5.152344-1.167969-7.636719-1.511719-2.558594-.3125-4.992187-.242187-7.363281.246094-2.371094.476563-4.761719 1.011719-7.246094 1.164063-2.46875.210937-4.980469.277343-7.5.351562-2.523438.078125-5.070312.195313-7.644531.117188-5.148438.09375-10.394531-.3125-15.769531-.578125l-.089844 1.433594c5.300781 2.550781 10.753906 4.757812 16.277344 6.515624 2.765624.910157 5.535156 1.636719 8.332031 2.394532 2.777343.613281 5.578125 1.234375 8.367187 1.707031 2.796875.496094 5.636719 1.160156 8.492188 1.699219 2.835937.476562 5.597656.480468 8.179687-.113282 1.136719-.277343 2.261719-.601562 3.363281-.992187 5.367188-1.914063 12.226563.464844 16.882813 5.550781 3.996094 4.367188 7.988281 8.742188 12.011719 13.082032 5.085937 5.511718 10.386718 10.796874 15.839844 15.914062-2.277344-.566406-4.46875-.957031-6.636719-1.257812-2.558594-.3125-4.992188-.242188-7.363281.246093-2.371094.476563-4.765626 1.011719-7.246094 1.164063-2.46875.210937-4.980469.277344-7.503906.351562-2.523438.082032-5.066407.195313-7.644532.117188-5.144531.09375-10.390625-.3125-15.765625-.578125l-.089843 1.433593c5.296874 2.554688 10.753906 4.757813 16.277343 6.515626 2.761719.914062 5.535157 1.636718 8.328125 2.394531 2.777344.613281 5.578125 1.234375 8.371094 1.707031 2.792969.5 5.636719 1.160156 8.492188 1.699219 2.835937.476562 5.597656.480469 8.179687-.113281 2.554687-.625 5.058594-1.488282 7.34375-2.828126 2.617187-1.535156 6.273437-1.066406 9.179687 1.304688 7.527344 6.132812 21.199219 17.128906 28.765626 22.550781 10.289062 7.285157 20.820312 14.28125 32.183593 20.273438.554688.296875 1.304688.113281 1.773438-.433594.441406-.503906.523437-1.199219.203125-1.691406-7.101563-10.902344-14.925782-20.929688-22.984375-30.671875-8.289063-9.96875-16.875-19.574219-25.730469-28.871094-.15625-.164062-.3125-.332031-.46875-.496094-2.855469-3-3.53125-7.054687-1.878906-9.960937 1.21875-2.144531 2.039062-4.472657 2.644531-6.847657.621094-2.574218.644531-5.328124.195313-8.164062-.511719-2.851562-1.148438-5.695312-1.621094-8.492188-.445313-2.789062-1.039063-5.585937-1.628906-8.367187-.734376-2.796875-1.429688-5.566406-2.316407-8.332031-1.710937-5.53125-3.867187-10.992188-6.371093-16.304688l-1.441407.074219c.214844 5.367187.570313 10.605469.429688 15.738281.050781 2.574219-.089844 5.109375-.191407 7.625-.101562 2.515625-.191406 5.023438-.429687 7.484375-.175781 2.476563-.734375 4.859375-1.234375 7.21875-.511719 2.359375-.605469 4.789063-.320312 7.34375.359374 2.773438.875 5.585938 1.71875 8.582031-4.882813-4.628906-9.886719-9.125-15.003907-13.492187-4.117187-3.457031-9.625-8.171875-14.453125-12.328125-5.136718-4.417969-7.699218-11.117188-6.042968-16.511719.808593-2.636719 1.191406-5.464843 1.820312-7.933593.621094-2.574219.644531-5.328126.195312-8.164063-.511718-2.851563-1.148437-5.695313-1.617187-8.488281-.449219-2.792969-1.042969-5.589844-1.632813-8.367188-.730468-2.796875-1.429687-5.570312-2.316406-8.335937-1.710937-5.527344-3.863281-10.992188-6.371094-16.304688l-1.4375.074219c.210938 5.367188.566407 10.605469.425782 15.738281.050781 2.574219-.085938 5.109375-.191406 7.625-.097657 2.519531-.191407 5.023438-.425782 7.484375-.175781 2.476563-.734375 4.859375-1.238281 7.21875-.511719 2.363282-.605469 4.789063-.316406 7.34375.628906 4.886719 1.710937 9.878906 4.386719 15.859375-9.460938-8.59375-19.003907-17.132812-28.359376-25.839843l-.367187-.332032c-5.785156-5.191406-9.148437-12.621094-8.242187-19.21875.253906-1.867187.320312-3.765625.277343-5.660156-.09375-2.796875-.777343-5.628906-1.917969-8.417969-1.199218-2.792969-2.507812-5.546875-3.652343-8.289062-1.125-2.746094-2.386719-5.460938-3.636719-8.160157-1.382812-2.675781-2.730469-5.339843-4.25-7.949218-2.976562-5.226563-6.339844-10.277344-9.988281-15.078125l-1.292969.445312c1.570312 5.445313 3.242188 10.726563 4.429688 16.023438zm0 0" fill="url(#j)"/></svg>