<?xml version="1.0" encoding="iso-8859-1"?>
<!-- Generator: Adobe Illustrator 19.0.0, SVG Export Plug-In . SVG Version: 6.00 Build 0)  -->
<svg version="1.1" id="Capa_1" xmlns="http://www.w3.org/2000/svg" xmlns:xlink="http://www.w3.org/1999/xlink" x="0px" y="0px"
	 viewBox="0 0 512 512" style="enable-background:new 0 0 512 512;" xml:space="preserve">
<g>
	<g>
		<path d="M511.614,13.94c-1.01-3.082-3.825-5.213-7.065-5.348c-16.313-0.679-60.902-0.562-122.433,15.172
			C324.84,38.411,271.093,62.486,226.681,93.388c-3.525,2.453-4.393,7.298-1.942,10.823s7.297,4.394,10.823,1.942
			C278.463,76.3,330.474,53.021,385.967,38.83c20.736-5.302,42.172-9.327,62.498-11.849c-8.334,3.599-17.264,7.81-26.56,12.746
			c-62.863,33.371-97.985,76.042-117.393,110.341c-2.55-11.444-3.249-24.597-3.254-30.459c-0.001-4.293-3.482-7.772-7.775-7.772
			c-4.294,0-7.775,3.481-7.775,7.775c0,3.441,0.275,32.117,8.959,49.793c-11.969,25.559-23.165,51.109-33.998,75.854
			c-4.601,10.51-9.131,20.854-13.622,30.98c-7.005-13.19-16.237-37.072-13.705-68.308c0.346-4.279-2.841-8.031-7.122-8.378
			c-4.267-0.34-8.031,2.841-8.378,7.122c-3.639,44.876,14.206,76.208,21.446,86.893c-13.57,29.989-26.951,57.607-41.045,81.18
			c-7.256-16.427-18.622-47.728-18.622-82.581c0-4.294-3.481-7.775-7.775-7.775c-4.294,0-7.775,3.481-7.775,7.775
			c0,46.231,17.881,85.544,24.316,98.193c-15.396,23.005-31.837,40.994-50.408,51.941c-56.574-61.441-62.092-176.72,36.743-283.462
			c11.235-12.134,23.565-23.717,36.649-34.426c3.324-2.72,3.812-7.618,1.092-10.941c-2.72-3.323-7.619-3.811-10.941-1.092
			c-13.635,11.162-26.491,23.239-38.21,35.894c-104.255,112.596-98.381,235.32-38.602,302.55
			C72.652,485.858,8.24,488.047,7.566,488.066c-4.29,0.115-7.675,3.685-7.563,7.976c0.111,4.223,3.569,7.571,7.769,7.571
			c0.069,0,0.139-0.001,0.208-0.002c2.984-0.079,71.693-2.33,127.976-41.639c17.054,13.915,43.805,22.38,76.238,22.38
			c36.719,0,80.721-10.852,126.175-36.931c42.108-24.16,72.297-61.119,89.729-109.85c14.928-41.729,19.962-91.937,14.558-145.196
			c-9.633-94.945,26.234-137.788,66.427-169.942C511.614,20.406,512.623,17.022,511.614,13.94z M442.932,77.542
			c-15.295,32.015-20.445,70.091-15.748,116.401c5.171,50.971,0.424,98.826-13.729,138.389
			c-16.151,45.151-44.018,79.333-82.826,101.601c-48.972,28.099-90.079,34.466-115.941,34.86
			c-26.44,0.414-49.303-5.231-64.645-15.681c12.768-8.283,24.492-19.392,35.508-32.802c0.606,0.005,1.261,0.008,1.992,0.008
			c7.635,0,21.86-0.328,38.645-2.289c33.578-3.924,60.049-12.21,78.678-24.629c3.573-2.381,4.538-7.209,2.156-10.781
			c-2.382-3.572-7.209-4.537-10.781-2.156c-28.698,19.132-74.923,23.287-98.782,24.107c15.125-21.571,29.056-47.473,42.795-76.162
			c13.521-0.033,49.41-2.958,83.533-30.161c3.358-2.677,3.909-7.569,1.233-10.926c-2.677-3.358-7.569-3.909-10.926-1.233
			c-25.06,19.979-51.581,25.142-66.348,26.379c8.965-19.4,17.926-39.868,27.166-60.971c4.769-10.892,9.612-21.946,14.552-33.076
			c0.533,0.012,1.096,0.021,1.689,0.021c11.719,0,35.058-2.859,60.706-21.862c3.45-2.556,4.175-7.426,1.618-10.876
			c-2.556-3.45-7.426-4.174-10.876-1.618c-15.824,11.724-30.388,16.128-39.82,17.759c-2.286,0.396-4.379,0.647-6.271,0.807
			c4.532-10.056,9.158-20.146,13.906-30.221c28.966-61.465,80.353-98.5,118.36-118.745c16.477-8.776,31.941-15.25,44.631-19.876
			C462.258,45.557,451.378,59.862,442.932,77.542z"/>
	</g>
</g>
<g>
</g>
<g>
</g>
<g>
</g>
<g>
</g>
<g>
</g>
<g>
</g>
<g>
</g>
<g>
</g>
<g>
</g>
<g>
</g>
<g>
</g>
<g>
</g>
<g>
</g>
<g>
</g>
<g>
</g>
</svg>
