<?xml version="1.0"?>
<svg xmlns="http://www.w3.org/2000/svg" xmlns:xlink="http://www.w3.org/1999/xlink" version="1.1" id="Capa_1" x="0px" y="0px" viewBox="0 0 512.001 512.001" style="enable-background:new 0 0 512.001 512.001;" xml:space="preserve" width="512px" height="512px"><g><g>
	<g>
		<g>
			<path d="M268.395,170.669c0.26,0.026,0.518,0.04,0.774,0.04c3.798,0,7.056-2.875,7.452-6.735     c1.983-19.337,20.355-80.078,34.288-98.494c2.499-3.304,1.847-8.008-1.456-10.507c-3.303-2.498-8.007-1.847-10.506,1.456     c-16.075,21.247-35.086,84.943-37.248,106.013C261.277,166.564,264.275,170.246,268.395,170.669z" data-original="#000000" class="active-path" fill="#000000"/>
			<path d="M111.76,132.601c-3.621-2.017-8.187-0.714-10.201,2.905c-2.015,3.619-0.714,8.186,2.905,10.2     c23.036,12.824,55.063,40.269,75.864,78.836c1.355,2.514,3.939,3.94,6.608,3.94c1.202,0,2.421-0.289,3.553-0.899     c3.646-1.967,5.007-6.516,3.041-10.162C171.196,176.012,136.646,146.454,111.76,132.601z" data-original="#000000" class="active-path" fill="#000000"/>
			<path d="M207.476,137.395c0.586,0,1.181-0.069,1.775-0.214c4.025-0.977,6.496-5.032,5.519-9.058     c-4.502-18.543-26.75-63.768-42.488-79.174c-2.959-2.896-7.708-2.847-10.606,0.112c-2.898,2.96-2.847,7.709,0.113,10.606     c12.462,12.2,34.178,54.588,38.405,71.994C201.027,135.093,204.096,137.395,207.476,137.395z" data-original="#000000" class="active-path" fill="#000000"/>
			<path d="M463.286,118.433c-6.774-15.865-19.327-28.126-35.346-34.525c-16.021-6.4-33.567-6.163-49.407,0.67     c-2.129,0.918-4.235,1.877-6.329,2.855c2.854-9.766,3.549-20.176,1.859-30.414c-3.093-18.73-13.509-34.878-29.327-45.467     c-16.107-10.783-36.114-14.204-54.889-9.385c-18.775,4.818-34.661,17.45-43.585,34.656c-2.498,4.816-4.848,9.707-7.047,14.663     c-4.425-8.307-9.346-16.339-14.715-24.004c-9.895-14.13-24.704-23.543-41.699-26.507c-16.993-2.962-34.114,0.883-48.209,10.83     c-14.741,10.402-24.21,25.942-26.664,43.759c-0.565,4.104,2.303,7.888,6.406,8.453c4.107,0.567,7.889-2.303,8.453-6.406     c1.881-13.655,9.145-25.569,20.454-33.55c10.813-7.632,23.948-10.58,36.983-8.309c13.038,2.273,24.398,9.496,31.99,20.337     c7.493,10.698,14.042,22.166,19.52,34.115c-10.519,29.45-15.941,60.704-15.84,92.006l0.025,7.7     c-13.732-24.333-31.2-46.549-51.714-65.565c-14.215-13.178-33.436-19.697-52.735-17.886C92.171,88.269,74.5,98.25,62.985,113.842     c-12.705,17.203-16.594,38.854-10.67,59.403c5.924,20.549,20.742,36.807,40.654,44.607c17.651,6.914,34.146,16.078,49.258,27.325     H67.875c-13.455,0-24.401,10.947-24.401,24.401v42.478c0,13.455,10.947,24.4,24.401,24.4H84.01l13.842,105.461     c0.496,3.776,3.719,6.525,7.427,6.525c0.325,0,0.654-0.021,0.985-0.064c4.107-0.539,6.999-4.306,6.46-8.412L99.138,336.461     h244.107c4.142,0,7.5-3.358,7.5-7.5c0-4.143-3.358-7.5-7.5-7.5H67.875c-5.184,0-9.402-4.218-9.402-9.401v-42.478     c0-5.185,4.218-9.402,9.402-9.402h173.739c0.009,0,0.017,0.002,0.025,0.002c0.015,0,0.031-0.002,0.046-0.002h2.794     c0.013,0,0.025,0.002,0.038,0.002c0.009,0,0.018-0.002,0.027-0.002h175.798c5.184,0,9.402,4.218,9.402,9.402v42.478     c0,5.184-4.218,9.401-9.402,9.401h-39.14c-4.142,0-7.5,3.357-7.5,7.5c0,4.142,3.358,7.5,7.5,7.5h7.878l-19.336,147.324     c-0.989,7.534-7.466,13.217-15.065,13.217h-221.14c-7.6,0-14.076-5.683-15.066-13.217l-0.787-5.998     c-0.539-4.108-4.308-6.991-8.412-6.461c-4.107,0.539-7,4.306-6.46,8.412l0.787,5.998c1.965,14.974,14.835,26.265,29.937,26.265     h221.14c15.102,0,27.972-11.292,29.937-26.265l19.592-149.274h16.136c13.455,0,24.401-10.946,24.401-24.4v-42.478     c0-13.455-10.947-24.401-24.401-24.401h-85.913c20.451-20.971,47.344-34.16,76.732-37.428     c20.458-2.275,38.142-13.777,48.518-31.555C470.054,158.418,471.369,137.365,463.286,118.433z M166.007,245.18     c-20.008-17.666-42.718-31.559-67.566-41.292c-15.533-6.085-27.091-18.768-31.711-34.796     c-4.621-16.029-1.587-32.918,8.323-46.338c8.982-12.162,22.766-19.948,37.82-21.36c15.054-1.411,30.047,3.672,41.137,13.951     c30.1,27.903,53.277,63.094,67.024,101.767l9.98,28.069H166.007z M243.704,236.097l-8.537-24.012     c-1.302-3.663-2.688-7.294-4.147-10.895l-0.126-39.03c-0.132-41.044,9.786-81.997,28.683-118.431     c6.961-13.422,19.353-23.275,33.998-27.033c14.645-3.762,30.25-1.092,42.816,7.32c12.338,8.26,20.461,20.849,22.872,35.446     c2.319,14.041-1.085,28.477-9.32,39.855c-40.251,24.395-72.219,60.47-91.637,104.024L243.704,236.097z M446.724,168.637     c-7.959,13.639-21.526,22.462-37.22,24.207c-36.581,4.068-69.71,21.875-93.287,50.139l-1.833,2.197h-58.308l15.931-35.731     c18.301-41.048,48.523-74.989,86.576-97.816c0.214-0.113,0.423-0.237,0.627-0.372c8.086-4.813,16.514-9.138,25.262-12.911     c12.152-5.24,25.612-5.422,37.902-0.514c12.29,4.909,21.919,14.315,27.115,26.486     C455.692,138.847,454.684,154.997,446.724,168.637z" data-original="#000000" class="active-path" fill="#000000"/>
			<path d="M175.721,407.946v-12.598c0-4.143-3.358-7.5-7.5-7.5s-7.5,3.357-7.5,7.5v12.598c0,4.143,3.358,7.5,7.5,7.5     S175.721,412.088,175.721,407.946z" data-original="#000000" class="active-path" fill="#000000"/>
			<path d="M244.109,425.118c9.836,0,19.189-4.26,25.661-11.688c2.721-3.123,2.396-7.86-0.727-10.582     c-3.123-2.721-7.86-2.395-10.582,0.727c-3.624,4.158-8.855,6.543-14.354,6.543c-5.499,0-10.73-2.385-14.353-6.542     c-2.722-3.124-7.458-3.448-10.582-0.728c-3.123,2.721-3.448,7.458-0.728,10.581C224.919,420.859,234.273,425.118,244.109,425.118     z" data-original="#000000" class="active-path" fill="#000000"/>
			<path d="M327.496,407.946v-12.598c0-4.143-3.358-7.5-7.5-7.5s-7.5,3.357-7.5,7.5v12.598c0,4.143,3.358,7.5,7.5,7.5     S327.496,412.088,327.496,407.946z" data-original="#000000" class="active-path" fill="#000000"/>
			<path d="M409.201,128.023c-21.985,3.417-43.258,12.463-63.229,26.884c-18.068,13.048-34.423,30.238-47.3,49.714     c-2.284,3.456-1.336,8.108,2.12,10.393c1.273,0.842,2.709,1.245,4.129,1.245c2.434,0,4.82-1.183,6.263-3.364     c25.126-38.004,62.629-64.19,100.32-70.049c4.093-0.637,6.896-4.47,6.259-8.564C417.127,130.19,413.297,127.392,409.201,128.023z     " data-original="#000000" class="active-path" fill="#000000"/>
		</g>
	</g>
</g></g> </svg>
